<?xml version="1.0" encoding="utf-8"?>
<!-- Generator: Adobe Illustrator 18.0.0, SVG Export Plug-In . SVG Version: 6.00 Build 0)  -->
<!DOCTYPE svg PUBLIC "-//W3C//DTD SVG 1.1//EN" "http://www.w3.org/Graphics/SVG/1.1/DTD/svg11.dtd">
<svg version="1.1" id="Livello_1" xmlns="http://www.w3.org/2000/svg" xmlns:xlink="http://www.w3.org/1999/xlink" x="0px" y="0px"
	 viewBox="0 0 330 330" enable-background="new 0 0 330 330" xml:space="preserve">
<path fill="#877474" d="M324.8,167v-4c0-1.1-0.9-2-2-2H320c-1.1,0-2-0.9-2.1-2l-0.3-4.8c-0.1-1.1,0.8-2.1,1.9-2.2l3.3-0.4
	c1.1-0.1,1.9-1.1,1.8-2.2l-0.3-3.2c-0.1-1.1-1.1-1.9-2.2-1.8l-3.3,0.3c-1.1,0.1-2.1-0.7-2.3-1.8l-0.7-4.7c-0.2-1.1,0.5-2.2,1.6-2.4
	l3.2-0.7c1.1-0.2,1.8-1.3,1.5-2.4l-0.7-3.2c-0.2-1.1-1.3-1.8-2.4-1.5l-3.2,0.7c-1.1,0.2-2.2-0.5-2.4-1.5l-1.2-4.6
	c-0.3-1.1,0.3-2.2,1.4-2.5l3.1-1c1-0.3,1.6-1.5,1.3-2.5l-1-3.1c-0.3-1-1.5-1.6-2.5-1.3l-3.1,1c-1,0.3-2.2-0.2-2.6-1.3l-1.7-4.5
	c-0.4-1,0.1-2.2,1.1-2.7l3-1.3c1-0.4,1.5-1.6,1-2.6l-1.3-3c-0.4-1-1.6-1.5-2.6-1l-3,1.3c-1,0.4-2.2,0-2.7-1l-2.2-4.2
	c-0.5-1-0.2-2.2,0.8-2.8l2.8-1.6c1-0.5,1.3-1.8,0.7-2.7l-1.6-2.8c-0.5-1-1.8-1.3-2.7-0.7l-2.8,1.6c-1,0.6-2.2,0.2-2.8-0.7l-2.6-4
	c-0.6-0.9-0.4-2.2,0.5-2.8l2.7-1.9c0.9-0.6,1.1-1.9,0.4-2.8l-1.9-2.6c-0.6-0.9-1.9-1.1-2.8-0.4l-2.7,2c-0.9,0.6-2.2,0.5-2.9-0.4
	l-3-3.7c-0.7-0.8-0.6-2.1,0.2-2.9l2.5-2.2c0.8-0.7,0.9-2,0.2-2.8l-2.2-2.4c-0.7-0.8-2-0.9-2.8-0.2l-2.5,2.2
	c-0.8,0.7-2.1,0.7-2.9-0.1l-3.4-3.4c-0.8-0.8-0.8-2.1-0.1-2.9l2.2-2.5c0.7-0.8,0.7-2.1-0.2-2.8l-2.4-2.2c-0.8-0.7-2.1-0.7-2.8,0.1
	l-2.2,2.5c-0.7,0.8-2,0.9-2.9,0.2l-3.7-3c-0.9-0.7-1-2-0.4-2.9l2-2.7c0.6-0.9,0.4-2.1-0.4-2.8l-2.6-1.9c-0.9-0.6-2.1-0.4-2.8,0.4
	l-1.9,2.7c-0.6,0.9-1.9,1.1-2.8,0.5l-4-2.6c-0.9-0.6-1.2-1.9-0.7-2.8l1.6-2.8c0.6-1,0.2-2.2-0.7-2.7L244,25c-1-0.5-2.2-0.2-2.7,0.7
	l-1.6,2.8c-0.6,1-1.8,1.3-2.8,0.8l-4.2-2.2c-1-0.5-1.4-1.7-1-2.7l1.3-3c0.4-1,0-2.2-1-2.6l-3-1.3c-1-0.4-2.2,0-2.6,1l-1.3,3
	c-0.4,1-1.6,1.5-2.7,1.1l-4.4-1.7c-1-0.4-1.6-1.5-1.3-2.6l1-3.1c0.3-1-0.2-2.2-1.3-2.5l-3.1-1c-1-0.3-2.2,0.2-2.5,1.3l-1,3.1
	c-0.3,1-1.5,1.7-2.5,1.4l-4.6-1.2c-1.1-0.3-1.8-1.4-1.5-2.4l0.7-3.2c0.2-1.1-0.5-2.1-1.5-2.4l-3.2-0.7c-1.1-0.2-2.1,0.5-2.4,1.5
	l-0.7,3.2c-0.2,1.1-1.3,1.8-2.4,1.6l-4.7-0.7c-1.1-0.2-1.9-1.2-1.8-2.3l0.3-3.3c0.1-1.1-0.7-2.1-1.8-2.2l-3.2-0.3
	c-1.1-0.1-2.1,0.7-2.2,1.8l-0.4,3.3c-0.1,1.1-1.1,1.9-2.2,1.9l-4.8-0.2c-1.1,0-2-1-2-2.1V7c0-1.1-0.9-2-2-2h-4c-1.1,0-2,0.9-2,2v2.8
	c0,1.1-0.9,2-2,2.1l-4.3,0.2c-1.1,0.1-2.1-0.8-2.1-1.9L152,7c-0.1-1.1-1-1.9-2.1-1.8l-3.1,0.3c-1.1,0.1-1.9,1.1-1.8,2.2l0.4,3.3
	c0.1,1.1-0.7,2.1-1.8,2.3L139,14c-1.1,0.2-2.2-0.5-2.4-1.6l-0.7-3.2c-0.2-1.1-1.3-1.8-2.4-1.5l-3.2,0.7c-1.1,0.2-1.8,1.3-1.5,2.4
	l0.7,3.2c0.2,1.1-0.5,2.2-1.5,2.4l-4.6,1.2c-1.1,0.3-2.2-0.3-2.5-1.4l-1-3.1c-0.3-1-1.5-1.6-2.5-1.3l-3.1,1c-1,0.3-1.6,1.5-1.3,2.5
	l1,3.1c0.3,1-0.2,2.2-1.3,2.6l-4.5,1.7c-1,0.4-2.2-0.1-2.7-1.1l-1.3-3c-0.4-1-1.6-1.5-2.6-1l-3,1.3c-1,0.4-1.5,1.6-1,2.6l1.3,3
	c0.4,1,0,2.2-1,2.7l-4.2,2.2c-1,0.5-2.2,0.2-2.8-0.8l-1.6-2.8c-0.6-1-1.8-1.3-2.7-0.7l-2.8,1.6c-1,0.5-1.3,1.8-0.7,2.7l1.6,2.8
	c0.6,1,0.2,2.2-0.7,2.8l-4,2.6c-0.9,0.6-2.2,0.4-2.8-0.5l-1.9-2.7c-0.6-0.9-1.9-1.1-2.8-0.4l-2.6,2c-0.9,0.6-1.1,1.9-0.4,2.8l2,2.7
	c0.6,0.9,0.5,2.2-0.4,2.9l-3.7,3c-0.8,0.7-2.1,0.6-2.9-0.2l-2.2-2.5c-0.7-0.8-2-0.9-2.8-0.1L57,46.7c-0.8,0.7-0.9,2-0.1,2.8l2.2,2.5
	c0.7,0.8,0.7,2.1-0.1,2.9l-3.4,3.4c-0.8,0.8-2.1,0.8-2.9,0.1l-2.5-2.2c-0.8-0.7-2.1-0.7-2.8,0.2l-2.2,2.4c-0.7,0.8-0.7,2.1,0.1,2.8
	l2.5,2.2c0.8,0.7,0.9,2,0.2,2.9l-3,3.7c-0.7,0.9-2,1-2.9,0.4l-2.7-2c-0.9-0.6-2.1-0.5-2.8,0.4l-1.9,2.6c-0.6,0.9-0.4,2.1,0.4,2.8
	l2.7,1.9c0.9,0.6,1.1,1.9,0.5,2.8l-2.6,4c-0.6,0.9-1.9,1.2-2.8,0.7l-2.8-1.6c-1-0.6-2.2-0.2-2.7,0.7l-1.6,2.8
	c-0.5,1-0.2,2.2,0.7,2.7l2.8,1.6c1,0.5,1.3,1.8,0.8,2.8l-2.2,4.2c-0.5,1-1.7,1.4-2.7,1l-3-1.3c-1-0.4-2.2,0-2.6,1l-1.3,3
	c-0.4,1,0,2.2,1,2.6l3,1.3c1,0.4,1.5,1.6,1.1,2.7l-1.7,4.4c-0.4,1-1.5,1.6-2.6,1.3l-3.1-1c-1-0.3-2.2,0.2-2.5,1.3l-1,3.1
	c-0.3,1,0.2,2.2,1.3,2.5l3.1,1c1,0.3,1.7,1.5,1.4,2.5l-1.2,4.6c-0.3,1.1-1.4,1.8-2.4,1.5l-3.2-0.7c-1.1-0.2-2.1,0.5-2.4,1.5
	l-0.7,3.2c-0.2,1.1,0.5,2.1,1.5,2.4l3.2,0.7c1.1,0.2,1.8,1.3,1.6,2.4l-0.7,4.7c-0.2,1.1-1.2,1.9-2.3,1.8l-3.3-0.3
	c-1.1-0.1-2.1,0.7-2.2,1.8L6,149.4c-0.1,1.1,0.7,2.1,1.8,2.2L11,152c1.1,0.1,1.9,1.1,1.9,2.2l-0.2,4.8c0,1.1-1,2-2.1,2H7.2
	c-1.1,0-2,0.9-2,2v4c0,1.1,0.9,2,2,2h3.3c1.1,0,2,0.9,2.1,2l0.2,4.3c0.1,1.1-0.8,2.1-1.9,2.1l-3.3,0.2c-1.1,0.1-1.9,1-1.8,2.1
	l0.3,3.1c0.1,1.1,1.1,1.9,2.2,1.8l3.3-0.4c1.1-0.1,2.1,0.7,2.3,1.8l0.7,4.7c0.2,1.1-0.5,2.2-1.6,2.4l-3.2,0.7
	c-1.1,0.2-1.8,1.3-1.5,2.4l0.7,3.2c0.2,1.1,1.3,1.8,2.4,1.5l3.2-0.7c1.1-0.2,2.2,0.5,2.4,1.5l1.2,4.6c0.3,1.1-0.3,2.2-1.4,2.5
	l-3.1,1c-1,0.3-1.6,1.5-1.3,2.5l1,3.1c0.3,1,1.5,1.6,2.5,1.3l3.1-1c1-0.3,2.2,0.2,2.6,1.3l1.7,4.5c0.4,1-0.1,2.2-1.1,2.7l-3,1.3
	c-1,0.4-1.5,1.6-1,2.6l1.3,3c0.4,1,1.6,1.5,2.6,1l3-1.3c1-0.4,2.2,0,2.7,1L30,236c0.5,1,0.2,2.2-0.8,2.8l-2.8,1.6
	c-1,0.5-1.3,1.8-0.7,2.7l1.6,2.8c0.5,1,1.8,1.3,2.7,0.7l2.8-1.6c1-0.5,2.2-0.2,2.8,0.7l2.6,4c0.6,0.9,0.4,2.2-0.5,2.8l-2.7,1.9
	c-0.9,0.6-1.1,1.9-0.4,2.8l1.9,2.6c0.6,0.9,1.9,1.1,2.8,0.4l2.7-1.9c0.9-0.6,2.2-0.5,2.9,0.4l3,3.7c0.7,0.8,0.6,2.1-0.2,2.9
	l-2.5,2.2c-0.8,0.7-0.9,2-0.1,2.8l2.2,2.4c0.7,0.8,2,0.9,2.8,0.1l2.5-2.2c0.8-0.7,2.1-0.7,2.9,0.1l3.4,3.4c0.8,0.8,0.8,2.1,0.1,2.9
	l-2.2,2.5c-0.7,0.8-0.7,2.1,0.1,2.8l2.4,2.2c0.8,0.7,2.1,0.7,2.8-0.1l2.2-2.5c0.7-0.8,2-0.9,2.9-0.2l3.7,3c0.9,0.7,1,2,0.4,2.9
	l-1.9,2.7c-0.6,0.9-0.5,2.1,0.4,2.8l2.6,1.9c0.9,0.6,2.1,0.4,2.8-0.4l1.9-2.7c0.6-0.9,1.9-1.1,2.8-0.5l4,2.6
	c0.9,0.6,1.2,1.9,0.7,2.8l-1.6,2.8c-0.6,1-0.2,2.2,0.7,2.7l2.8,1.6c1,0.5,2.2,0.2,2.7-0.7l1.6-2.8c0.6-1,1.8-1.3,2.8-0.8l4.2,2.2
	c1,0.5,1.4,1.7,1,2.7l-1.3,3c-0.4,1,0,2.2,1,2.6l3,1.3c1,0.4,2.2,0,2.6-1l1.3-3c0.4-1,1.6-1.5,2.7-1.1l4.4,1.7
	c1,0.4,1.6,1.5,1.3,2.6l-1,3.1c-0.3,1,0.2,2.2,1.3,2.5l3.1,1c1,0.3,2.2-0.2,2.5-1.3l1-3.1c0.3-1,1.5-1.7,2.5-1.4l4.6,1.2
	c1.1,0.3,1.8,1.4,1.5,2.4l-0.7,3.2c-0.2,1.1,0.5,2.1,1.5,2.4l3.2,0.7c1.1,0.2,2.1-0.5,2.4-1.5l0.7-3.2c0.2-1.1,1.3-1.8,2.4-1.6
	l4.7,0.7c1.1,0.2,1.9,1.2,1.8,2.3l-0.3,3.3c-0.1,1.1,0.7,2.1,1.8,2.2l3.2,0.3c1.1,0.1,2-0.7,2.1-1.8l0.1-3.3c0-1.1,1-1.9,2.1-1.9
	l4.3,0.2c1.1,0,2,1,2,2.1v3.9c0,1.1,0.9,2,2,2h4c1.1,0,2-0.9,2-2v-3.9c0-1.1,0.9-2,2-2.1l4.8-0.2c1.1-0.1,2.1,0.8,2.2,1.9l0.4,3.3
	c0.1,1.1,1.1,1.9,2.2,1.8l3.2-0.3c1.1-0.1,1.9-1.1,1.8-2.2l-0.3-3.3c-0.1-1.1,0.7-2.1,1.8-2.3l4.7-0.7c1.1-0.2,2.2,0.5,2.4,1.6
	l0.7,3.3c0.2,1.1,1.3,1.8,2.4,1.5l3.2-0.7c1.1-0.2,1.8-1.3,1.5-2.4l-0.7-3.2c-0.2-1.1,0.5-2.2,1.5-2.4l4.6-1.2
	c1.1-0.3,2.2,0.3,2.5,1.4l1,3.1c0.3,1,1.5,1.6,2.5,1.3l3.1-1c1-0.3,1.6-1.5,1.3-2.5l-1-3.1c-0.3-1,0.2-2.2,1.3-2.6l4.4-1.7
	c1-0.4,2.2,0.1,2.7,1.1l1.3,3c0.4,1,1.6,1.5,2.6,1l3-1.3c1-0.4,1.5-1.6,1-2.6l-1.3-3c-0.4-1,0-2.2,1-2.7l4.2-2.2
	c1-0.5,2.2-0.2,2.8,0.8l1.6,2.8c0.5,1,1.8,1.3,2.7,0.7l2.8-1.6c1-0.5,1.3-1.8,0.7-2.7l-1.6-2.8c-0.6-1-0.2-2.2,0.7-2.8l4-2.6
	c0.9-0.6,2.2-0.4,2.8,0.5l1.9,2.7c0.6,0.9,1.9,1.1,2.8,0.4l2.6-1.9c0.9-0.6,1.1-1.9,0.4-2.8l-1.9-2.7c-0.6-0.9-0.5-2.2,0.4-2.9
	l3.7-3c0.8-0.7,2.1-0.6,2.9,0.2l2.2,2.5c0.7,0.8,2,0.9,2.8,0.1l2.4-2.2c0.8-0.7,0.9-2,0.1-2.8l-2.2-2.5c-0.7-0.8-0.7-2.1,0.1-2.9
	l3.4-3.4c0.8-0.8,2.1-0.8,2.9-0.1l2.5,2.2c0.8,0.7,2.1,0.7,2.8-0.1l2.2-2.4c0.7-0.8,0.7-2.1-0.1-2.8l-2.5-2.2
	c-0.8-0.7-0.9-2-0.2-2.9l3-3.7c0.7-0.9,2-1,2.9-0.4l2.7,1.9c0.9,0.6,2.1,0.4,2.8-0.4l1.9-2.6c0.6-0.9,0.4-2.1-0.4-2.8l-2.7-1.9
	c-0.9-0.6-1.1-1.9-0.5-2.8l2.6-4c0.6-0.9,1.9-1.2,2.8-0.7l2.8,1.6c1,0.5,2.2,0.2,2.7-0.7l1.6-2.8c0.5-1,0.2-2.2-0.7-2.7l-2.8-1.6
	c-1-0.5-1.3-1.8-0.8-2.8l2.2-4.2c0.5-1,1.7-1.4,2.7-1l3,1.3c1,0.4,2.2,0,2.6-1l1.3-3c0.4-1,0-2.2-1-2.6l-3-1.3
	c-1-0.4-1.5-1.6-1.1-2.7l1.7-4.5c0.4-1,1.5-1.6,2.6-1.3l3.1,1c1,0.3,2.2-0.2,2.5-1.3l1-3.1c0.3-1-0.2-2.2-1.3-2.5l-3.1-1
	c-1-0.3-1.7-1.5-1.4-2.5l1.2-4.6c0.3-1.1,1.4-1.8,2.4-1.5l3.2,0.7c1.1,0.2,2.1-0.5,2.4-1.5l0.7-3.2c0.2-1.1-0.5-2.1-1.5-2.4
	l-3.2-0.7c-1.1-0.2-1.8-1.3-1.6-2.4l0.7-4.7c0.2-1.1,1.2-1.9,2.3-1.8l3.3,0.3c1.1,0.1,2.1-0.7,2.2-1.8l0.3-3.2
	c0.1-1.1-0.7-2-1.8-2.1l-3.3-0.1c-1.1,0-1.9-1-1.9-2.1l0.2-4.3c0-1.1,1-2,2.1-2h3.1v0C323.9,169,324.8,168.1,324.8,167z
	 M165.2,311.5c-81.2,0-147-65.8-147-147s65.8-147,147-147s147,65.8,147,147S246.4,311.5,165.2,311.5z"/>
</svg>
