<?xml version="1.0" encoding="utf-8"?>
<!-- Generator: Adobe Illustrator 18.0.0, SVG Export Plug-In . SVG Version: 6.00 Build 0)  -->
<!DOCTYPE svg PUBLIC "-//W3C//DTD SVG 1.1//EN" "http://www.w3.org/Graphics/SVG/1.1/DTD/svg11.dtd">
<svg version="1.1" id="Livello_1" xmlns="http://www.w3.org/2000/svg" xmlns:xlink="http://www.w3.org/1999/xlink" x="0px" y="0px"
	 viewBox="0 0 200 200" enable-background="new 0 0 200 200" xml:space="preserve">
<path fill="#877474" d="M193.8,108.4c-0.8-0.5-3.4-2.4-3.3-3.5c0,0,0.1-2.4,0.1-4.6s-0.1-4.6-0.1-4.6c-0.1-1.1,0.7-2.3,1.7-2.7
	s3.6-2.2,4.3-3c0.6-0.7,1-2.2,0.9-3.3l-0.1-0.5c-0.2-1.1-1-2.4-1.8-2.9s-2.3-1.1-3.2-1.3c-0.9-0.2-3.9-1.4-4.2-2.4l-2.6-8.9
	c-0.3-1,0.1-2.4,0.9-3.1c0.8-0.7,2.9-3.2,3.3-4c0.4-0.9,0.4-2.4-0.1-3.4l-0.2-0.5c-0.5-1-1.6-2-2.5-2.3c-0.9-0.3-2.5-0.4-3.4-0.4
	c-0.9,0-4.2-0.2-4.7-1.2l-5-7.8c-0.6-0.9-0.6-2.4,0-3.2c0.6-0.8,1.9-3.9,2-4.8c0.1-1-0.3-2.4-1-3.3l-0.4-0.4
	c-0.7-0.8-2.1-1.5-3.1-1.5s-2.5,0.3-3.4,0.6c-0.9,0.3-4.1,1-4.9,0.2l-7-6.1c-0.9-0.7-1.3-2.1-0.9-3.1c0.4-1,0.7-4.2,0.6-5.2
	s-1-2.2-1.9-2.8l-0.5-0.3c-0.9-0.6-2.4-0.9-3.4-0.6c-0.9,0.3-2.3,1-3.1,1.5c-0.8,0.6-3.6,2.1-4.6,1.6l-8.4-3.9
	c-1-0.4-1.8-1.6-1.8-2.7s-0.5-4.2-0.9-5.1c-0.4-0.9-1.6-1.9-2.6-2.2L128,6.5c-1.1-0.3-2.6-0.1-3.4,0.4c-0.8,0.5-2,1.6-2.5,2.3
	c-0.6,0.8-2.9,3-4,2.8l-9.2-1.3c-1.1-0.1-2.2-1.1-2.5-2.1s-1.7-3.9-2.3-4.7c-0.6-0.7-2-1.3-3.1-1.3h-0.6c-1.1,0-2.5,0.6-3.1,1.3
	c-0.6,0.7-1.4,2.1-1.8,3c-0.4,0.9-1.9,3.7-3,3.8L83.3,12c-1.1,0.2-2.4-0.4-2.9-1.3c-0.5-0.9-2.7-3.3-3.5-3.8s-2.3-0.7-3.4-0.4
	L73,6.7C71.8,7,70.6,8,70.2,8.8c-0.4,0.9-0.8,2.4-0.9,3.3c-0.1,0.9-0.8,4.1-1.8,4.5l-8.4,3.9c-1,0.5-2.4,0.3-3.2-0.5
	c-0.8-0.7-3.5-2.4-4.5-2.7c-0.9-0.3-2.4,0-3.4,0.6l-0.5,0.3c-0.9,0.6-1.8,1.9-1.9,2.8c-0.1,1-0.1,2.5,0.1,3.4
	c0.2,0.9,0.4,4.1-0.5,4.8l-7,6.1c-0.8,0.8-2.2,1-3.2,0.5s-4.1-1.3-5-1.3c-0.9,0-2.4,0.7-3.1,1.5l-0.4,0.4c-0.7,0.8-1.2,2.3-1,3.3
	s0.6,2.4,1.1,3.3c0.4,0.8,1.5,3.9,0.9,4.8l-5,7.8c-0.6,0.9-1.9,1.6-2.9,1.4c-1.1-0.2-4.3-0.1-5.2,0.2c-0.9,0.3-2.1,1.3-2.5,2.3
	L11.7,60c-0.5,1-0.5,2.5-0.1,3.4c0.4,0.9,1.3,2.2,2,2.8c0.7,0.7,2.6,3.3,2.2,4.3l-2.6,8.9c-0.3,1.1-1.4,2-2.4,2.1
	c-1.1,0.1-4.1,1.1-4.9,1.6c-0.9,0.6-1.7,2-1.9,3l-0.1,0.5c-0.2,1.1,0.2,2.6,0.9,3.3c0.7,0.7,1.9,1.7,2.7,2.2s3.4,2.4,3.3,3.5
	c0,0-0.1,2.4-0.1,4.6c0,2.2,0.1,4.6,0.1,4.6c0.1,1.1-0.7,2.3-1.7,2.7c-1,0.4-3.6,2.2-4.3,3s-1,2.2-0.9,3.3l0.1,0.5
	c0.2,1.1,1,2.4,1.8,2.9s2.3,1.1,3.2,1.3s3.9,1.4,4.2,2.4l2.6,8.9c0.3,1-0.1,2.4-0.9,3.1c-0.8,0.7-2.9,3.2-3.3,4
	c-0.4,0.9-0.4,2.4,0.1,3.4l0.2,0.5c0.5,1,1.6,2,2.5,2.3c0.9,0.3,2.5,0.4,3.4,0.4c0.9,0,4.2,0.2,4.7,1.2l5,7.8c0.6,0.9,0.6,2.4,0,3.2
	c-0.6,0.9-1.8,3.9-2,4.8c-0.1,1,0.3,2.4,1,3.3l0.4,0.4c0.7,0.8,2.1,1.5,3.1,1.5s2.5-0.3,3.4-0.6c0.9-0.3,4.1-1,4.9-0.2l7,6.1
	c0.9,0.7,1.3,2.1,0.9,3.1c-0.4,1-0.7,4.2-0.6,5.2c0.1,1,1,2.2,1.9,2.8l0.5,0.3c0.9,0.6,2.4,0.9,3.4,0.6c0.9-0.3,2.3-1,3.1-1.5
	s3.6-2.1,4.6-1.6l8.4,3.9c1,0.4,1.8,1.6,1.8,2.7s0.5,4.2,0.9,5.1c0.4,0.9,1.6,1.9,2.6,2.2l0.5,0.2c1.1,0.3,2.6,0.1,3.4-0.4
	s1.9-1.6,2.5-2.3c0.6-0.8,2.9-3,4-2.8l9.2,1.3c1.1,0.1,2.2,1.1,2.5,2.1c0.3,1.1,1.7,3.9,2.3,4.7c0.6,0.7,2,1.3,3.1,1.3h0.5
	c1.1,0,2.5-0.6,3.1-1.3c0.6-0.7,1.4-2.1,1.8-3c0.3-0.9,1.9-3.7,3-3.8l9.2-1.3c1.1-0.2,2.4,0.4,2.9,1.3s2.7,3.3,3.5,3.8
	c0.8,0.5,2.3,0.7,3.4,0.4l0.5-0.2c1.1-0.3,2.2-1.3,2.6-2.2c0.4-0.9,0.8-2.4,0.9-3.3c0.1-0.9,0.8-4.1,1.8-4.5l8.4-3.9
	c1-0.5,2.4-0.3,3.2,0.4c0.8,0.7,3.5,2.4,4.5,2.7c0.9,0.3,2.4,0,3.4-0.6l0.5-0.3c0.9-0.6,1.8-1.9,1.9-2.8c0.1-1,0.1-2.5-0.1-3.5
	s-0.4-4.1,0.5-4.8l7-6.1c0.8-0.8,2.2-1,3.2-0.5s4.1,1.3,5.1,1.3s2.4-0.7,3.1-1.5l0.4-0.4c0.7-0.8,1.2-2.3,1-3.3
	c-0.1-1-0.6-2.4-1.1-3.3c-0.4-0.8-1.5-3.9-0.9-4.8l5-7.8c0.6-0.9,1.9-1.6,2.9-1.4c1.1,0.2,4.3,0.1,5.2-0.2c0.9-0.3,2.1-1.3,2.5-2.3
	l0.2-0.5c0.5-1,0.5-2.5,0.1-3.4c-0.4-0.9-1.3-2.2-2-2.8c-0.7-0.7-2.6-3.3-2.2-4.3l2.6-8.9c0.3-1.1,1.4-2,2.4-2.1
	c1.1-0.1,4.1-1.1,4.9-1.6s1.6-1.8,1.8-2.9l0.1-0.5c0.4-0.9,0-2.3-0.6-3.1C195.9,109.9,194.6,108.9,193.8,108.4z M100.7,175.3
	c-41.4,0-75-33.6-75-75c0-41.4,33.6-75,75-75c41.4,0,75,33.6,75,75C175.7,141.7,142.1,175.3,100.7,175.3z"/>
<path fill="#928D88" d="M100.7,137.3c-20.4,0-37-16.6-37-37c0-20.4,16.6-37,37-37c20.4,0,37,16.6,37,37
	C137.7,120.7,121.1,137.3,100.7,137.3z M100.7,67.3c-18.2,0-33,14.8-33,33s14.8,33,33,33s33-14.8,33-33S118.9,67.3,100.7,67.3z"/>
</svg>
